<?xml version="1.0" standalone="no"?>
<!DOCTYPE svg PUBLIC "-//W3C//DTD SVG 20010904//EN"
 "http://www.w3.org/TR/2001/REC-SVG-20010904/DTD/svg10.dtd">
<svg version="1.0" xmlns="http://www.w3.org/2000/svg"
 width="512.000000pt" height="512.000000pt" viewBox="0 0 512.000000 512.000000"
 preserveAspectRatio="xMidYMid meet">
<metadata>
Created by potrace 1.10, written by Peter Selinger 2001-2011
</metadata>
<g transform="translate(0.000000,512.000000) scale(0.100000,-0.100000)"
fill="#000000" stroke="none">
<path d="M1103 4643 c-32 -6 -63 -50 -63 -87 1 -35 15 -57 47 -74 30 -16 1365
-17 1395 -1 11 6 26 26 34 44 16 39 8 69 -26 100 -22 20 -37 20 -694 21 -369
1 -681 -1 -693 -3z"/>
<path d="M50 4177 c-59 -30 -63 -114 -7 -148 31 -18 57 -19 615 -19 l584 0 29
29 c39 40 39 82 0 122 l-29 29 -584 0 c-450 0 -589 -3 -608 -13z"/>
<path d="M3155 4178 c-32 -18 -44 -40 -45 -80 0 -28 7 -42 31 -62 l31 -26 418
0 418 0 31 26 c44 37 44 91 0 128 l-31 26 -416 0 c-295 -1 -423 -4 -437 -12z"/>
<path d="M29 3651 c-36 -37 -38 -79 -5 -118 l24 -28 471 -3 c408 -2 475 -1
501 13 35 18 52 66 37 108 -19 57 -23 57 -532 57 l-467 0 -29 -29z"/>
<path d="M1335 3668 c-32 -18 -44 -40 -45 -80 0 -29 7 -42 32 -63 84 -71 186
48 109 126 -31 30 -63 36 -96 17z"/>
<path d="M1730 3667 c-56 -28 -63 -112 -12 -145 23 -15 72 -18 442 -23 456 -6
521 -13 754 -79 106 -30 294 -102 359 -138 32 -17 30 -17 -148 -22 l-180 -5
-63 -34 c-176 -96 -238 -300 -144 -474 35 -65 110 -131 178 -156 53 -20 74
-21 678 -21 711 0 650 8 700 -92 21 -41 26 -67 26 -124 0 -62 -5 -81 -33 -135
-20 -40 -48 -75 -75 -96 -89 -67 63 -63 -2150 -63 l-2004 0 -29 -29 c-16 -16
-29 -39 -29 -51 0 -33 28 -79 53 -85 12 -3 940 -4 2063 -3 l2040 3 76 38 c262
129 346 446 182 685 -37 52 -435 397 -667 575 -349 270 -773 434 -1227 476
-168 16 -758 14 -790 -2z m1893 -599 c18 -13 113 -90 212 -173 l179 -150 -489
-3 c-328 -2 -502 1 -527 8 -164 47 -172 268 -11 325 29 11 108 14 321 15 278
0 285 0 315 -22z"/>
<path d="M920 3239 c-60 -27 -107 -74 -136 -134 -22 -46 -24 -62 -23 -210 0
-173 7 -210 53 -270 76 -99 244 -129 345 -62 l35 23 57 -29 c46 -24 70 -29
121 -29 64 0 127 19 160 49 17 15 19 15 36 0 56 -51 184 -65 263 -30 53 25
103 72 132 127 19 36 22 61 25 193 4 178 -8 236 -63 300 -81 94 -211 120 -319
64 l-56 -30 -56 30 c-79 41 -157 41 -243 -2 -59 -29 -63 -30 -81 -14 -51 46
-174 58 -250 24z m135 -163 c18 -8 38 -23 44 -34 6 -12 11 -77 11 -152 l0
-132 -29 -29 c-37 -37 -82 -39 -116 -5 -31 31 -38 71 -33 199 2 88 6 109 23
127 16 18 43 35 63 39 1 1 18 -5 37 -13z m383 -23 c21 -22 22 -33 22 -159 l0
-136 -29 -29 c-38 -37 -82 -39 -116 -4 -24 23 -25 29 -25 168 0 136 1 145 23
164 42 39 87 38 125 -4z m350 1 c21 -23 22 -34 22 -163 0 -136 0 -139 -26
-165 -35 -34 -82 -35 -118 -1 -26 24 -26 26 -26 162 0 111 3 143 16 161 33 48
92 50 132 6z"/>
<path d="M497 1434 c-53 -29 -61 -91 -18 -135 l29 -29 267 0 267 0 29 29 c36
37 38 79 5 118 l-24 28 -264 2 c-221 2 -267 0 -291 -13z"/>
<path d="M1484 1440 c-58 -23 -70 -95 -25 -141 l29 -29 902 0 c666 0 907 3
923 12 53 28 63 88 23 135 l-24 28 -904 2 c-497 1 -913 -2 -924 -7z"/>
</g>
</svg>
