<?xml version="1.0" encoding="UTF-8"?>
<svg width="464px" height="314px" viewBox="0 0 464 314" version="1.1" xmlns="http://www.w3.org/2000/svg" xmlns:xlink="http://www.w3.org/1999/xlink">
    <defs>
        <linearGradient x1="0.00215870369%" y1="49.9984032%" x2="100.004107%" y2="49.9984032%" id="linearGradient-1">
            <stop stop-color="#0061FF" offset="0%"></stop>
            <stop stop-color="#EC1FDA" offset="100%"></stop>
        </linearGradient>
    </defs>
    <g id="Page-1" stroke="none" stroke-width="1" fill="none" fill-rule="evenodd">
        <g id="maglev-3" fill="url(#linearGradient-1)">
            <path d="M454.3,164.08 L419.43,88.31 C394.87,34.93 341.49,0.74 282.74,0.74 L103.98,0.74 C92.95,0.74 84.01,9.68 84.01,20.71 C84.01,31.74 92.95,40.68 103.98,40.68 L229.29,40.68 C229.29,40.68 219.11,64.98 219.11,64.98 C212.3,81.22 196.41,91.79 178.8,91.79 L20.74,91.79 C9.71,91.79 0.77,100.73 0.77,111.76 C0.77,122.79 9.71,131.73 20.74,131.73 L191.14,131.73 C191.14,131.73 180.96,156.04 180.96,156.04 C174.15,172.28 158.26,182.85 140.65,182.85 L52.82,182.85 C41.79,182.85 32.85,191.79 32.85,202.82 C32.85,213.85 41.79,222.79 52.82,222.79 L414.89,222.79 C418.73,222.79 421.53,226.58 420.25,230.19 C417.74,237.29 413.97,244.05 408.92,250.15 C396.11,265.63 376.56,273.93 356.46,273.93 L126,273.93 C114.97,273.93 106.03,282.87 106.03,293.9 C106.03,304.93 114.97,313.87 126,313.87 L355.88,313.87 C390.23,313.87 423.3,298.4 443.55,270.65 C466.4,239.34 470.31,198.94 454.28,164.09 L454.3,164.08 Z" id="Path"></path>
        </g>
    </g>
</svg>